<svg height="464pt" viewBox="0 0 464 464" width="464pt" xmlns="http://www.w3.org/2000/svg"><path d="m416 384h-96c-4.414062 0-8 3.585938-8 8v40h32v-8c0-13.230469 10.769531-24 24-24s24 10.769531 24 24v8h32v-40c0-4.40625-3.585938-8-8-8zm0 0"/><path d="m326.503906 331.351562 1.496094 2.089844v34.558594h80v-34.558594l1.496094-2.089844c9.710937-13.597656 17.609375-28.144531 23.710937-43.351562h-130.40625c6.09375 15.207031 14 29.761719 23.703125 43.351562zm0 0"/><path d="m368 416c-4.414062 0-8 3.585938-8 8v8h16v-8c0-4.40625-3.585938-8-8-8zm0 0"/><path d="m312 456c0 4.414062 3.585938 8 8 8h96c4.414062 0 8-3.585938 8-8v-8h-112zm0 0"/><path d="m428.753906 0h-121.507812c-19.429688 0-35.246094 15.816406-35.246094 35.257812 0 2.574219.28125 5.148438.832031 7.636719l1.136719 5.113281h188.046875l1.136719-5.105468c.566406-2.503906.847656-5.070313.847656-7.644532 0-19.441406-15.816406-35.257812-35.246094-35.257812zm0 0"/><path d="m367.769531 240c26.804688 0 48.230469-21.433594 48.230469-47.769531 0-9.09375-2.585938-17.957031-7.472656-25.636719l-40.527344-63.691406-40.527344 63.699218c-4.886718 7.671876-7.472656 16.542969-7.472656 25.636719 0 26.335938 21.433594 47.761719 47.769531 47.761719zm-15.769531-96h32v16h-32zm-16 32h64v16h-64zm0 0"/><path d="m282.695312 87.257812c3.511719 15.804688 5.304688 32.0625 5.304688 48.316407v75.609375c0 20.863281 3.160156 41.289062 9.167969 60.824218h141.65625c6.015625-19.535156 9.175781-39.960937 9.175781-60.824218v-75.609375c0-16.246094 1.792969-32.503907 5.304688-48.328125l5.160156-23.238282h-180.9375zm31.273438 70.742188 54.03125-84.894531 54.03125 84.894531c6.519531 10.265625 9.96875 22.097656 9.96875 34.238281 0 35.167969-28.601562 63.769531-63.769531 63.769531-35.628907 0-64.230469-28.601562-64.230469-63.769531 0-12.140625 3.449219-23.972656 9.96875-34.238281zm0 0"/><path d="m146.449219 217.089844c-4.832031-15.011719-18.671875-25.089844-34.449219-25.089844s-29.617188 10.078125-34.449219 25.089844l-42.480469 131.664062c-2.871093 8.917969-3.75 18.191406-2.582031 27.550782 3.953125 31.75 32.273438 55.695312 65.878907 55.695312h23.960937c34.3125 0 61.710937-20.023438 68.167969-49.824219 2.425781-11.160156 1.871094-22.710937-1.574219-33.421875zm-34.449219 38.910156c-13.230469 0-24-10.769531-24-24s10.769531-24 24-24 24 10.769531 24 24c0 13.238281-10.769531 24-24 24zm0 0"/><path d="m120 232c0 4.417969-3.582031 8-8 8s-8-3.582031-8-8 3.582031-8 8-8 8 3.582031 8 8zm0 0"/><path d="m114.046875 0h-4.09375l-19.199219 64h42.492188zm0 0"/><path d="m56 80h112.007812v16h-112.007812zm0 0"/><path d="m146.175781 112h-68.34375l-73.199219 226.929688c-3.082031 9.511718-4.632812 19.390624-4.632812 29.382812 0 52.765625 42.921875 95.6875 95.6875 95.6875h32.625c52.765625 0 95.6875-42.921875 95.6875-95.6875 0-9.992188-1.550781-19.871094-4.625-29.382812zm59.96875 273.574219c-7.96875 36.761719-42.433593 62.433593-83.808593 62.433593h-23.960938c-41.664062 0-76.816406-29.976562-81.757812-69.726562-1.457032-11.6875-.371094-23.265625 3.222656-34.433594l42.480468-131.664062c6.976563-21.640625 26.9375-36.175782 49.679688-36.175782s42.703125 14.535157 49.679688 36.175782l42.480468 131.671875c4.3125 13.382812 5 27.808593 1.984375 41.71875zm0 0"/></svg>