<svg id="Capa_1" enable-background="new 0 0 512 512" height="512" viewBox="0 0 512 512" width="512" xmlns="http://www.w3.org/2000/svg"><g><g><path d="m256 0c-141.61 0-256 114.43-256 256 0 141.61 114.43 256 256 256 141.61 0 256-114.43 256-256 0-141.61-114.43-256-256-256zm-158.88 368.95c-17.01-23.86-28.57-51.69-33.41-80.46l29.58-4.98c4.1 24.32 13.87 47.84 28.26 68.03zm-3.83-140.46-29.58-4.98c4.84-28.77 16.4-56.6 33.41-80.46l24.43 17.41c-14.39 20.19-24.16 43.71-28.26 68.03zm130.22 219.8c-28.77-4.84-56.6-16.4-80.46-33.41l17.41-24.43c20.19 14.39 43.71 24.16 68.03 28.26zm-63.05-326.74-17.41-24.43c23.86-17.01 51.69-28.57 80.46-33.41l4.98 29.58c-24.32 4.1-47.84 13.87-68.03 28.26zm254.42 21.5c17.01 23.86 28.57 51.68 33.41 80.46l-29.58 4.98c-4.1-24.32-13.87-47.84-28.25-68.03zm-126.39 305.24-4.98-29.58c24.32-4.1 47.84-13.87 68.03-28.26l17.41 24.43c-23.86 17.01-51.69 28.57-80.46 33.41zm63.05-326.74c-20.19-14.39-43.71-24.16-68.03-28.26l4.98-29.58c28.77 4.84 56.6 16.4 80.46 33.41zm63.34 247.4-24.42-17.41c14.38-20.19 24.15-43.71 28.25-68.03l29.58 4.98c-4.84 28.78-16.4 56.6-33.41 80.46z"/></g></g></svg>